<svg width="424" height="110" viewBox="0 0 424 110" fill="none" xmlns="http://www.w3.org/2000/svg">
<path d="M53.583 32.5547V77.2617C53.5831 90.4188 63.4814 101.275 76.2373 102.773V108.822H38.1191C17.0694 108.822 0.000118336 91.7464 0 70.6885C0 49.6304 17.0694 32.5547 38.1191 32.5547H53.583ZM85.0059 0C106.056 0 123.125 17.0758 123.125 38.1338C123.125 59.1917 106.056 76.2676 85.0059 76.2676H69.542V31.5605C69.542 18.4034 59.6437 7.54774 46.8877 6.04883V0H85.0059Z" fill="#159DB8"/>
<path d="M402.633 108.694C398.31 108.694 394.5 107.752 391.204 105.857C387.983 103.898 385.457 101.286 383.627 98.0096C381.872 94.7444 380.995 91.2865 380.995 87.1112V32.416H394.179V85.484C394.179 89.4879 394.404 91.6611 397.4 95.376C400.397 99.1016 405.458 99.6262 411.794 99.6262C418.129 99.6262 423.073 99.6904 423.073 99.6904V108.683H402.644L402.633 108.694Z" fill="#140E1C"/>
<path d="M267.526 110C261.448 110 256.065 108.769 251.378 106.296C246.691 103.759 242.988 100.161 240.28 95.5045C237.648 90.8583 236.321 85.302 236.321 78.8358V32.4268H249.398V82.4329C249.398 85.7731 250.136 88.8563 251.603 91.6933C253.144 94.5303 255.262 96.8106 257.97 98.5556C260.688 100.226 263.909 101.061 267.633 101.061C271.357 101.061 274.557 100.226 277.19 98.5556C279.897 96.8106 281.984 94.5196 283.45 91.6933C284.916 88.8563 285.644 85.7731 285.644 82.4329V32.4268H298.828V78.8358C298.828 85.302 297.469 90.8583 294.761 95.5045C292.054 100.151 288.351 103.748 283.664 106.296C278.977 108.769 273.594 110 267.516 110H267.526Z" fill="#140E1C"/>
<path d="M161.37 108.694V32.4268H186.636C194.844 32.4268 201.95 34.0647 207.953 37.33C213.957 40.5952 218.612 45.1023 221.908 50.8405C225.204 56.5787 226.852 63.152 226.852 70.5603C226.852 77.9686 225.204 84.5419 221.908 90.2802C218.612 96.0184 213.967 100.525 207.953 103.791C201.95 107.056 194.844 108.694 186.636 108.694H161.37ZM174.447 101.007H186.753C191.954 101.007 196.567 99.8082 200.59 97.3994C204.689 94.9157 207.91 91.3935 210.254 86.8329C212.597 82.1974 213.775 76.7696 213.775 70.5496C213.775 64.3296 212.597 58.8269 210.254 54.2663C207.91 49.7057 204.689 46.2264 200.59 43.8283C196.567 41.3446 191.954 40.1027 186.753 40.1027H174.447V100.997V101.007Z" fill="#140E1C"/>
<path d="M346.361 32.3842H332.942L302.903 108.758H316.59C316.654 108.598 316.697 108.491 316.697 108.48L323.974 89.4776H354.591L361.9 108.758H376.186L346.372 32.3735L346.361 32.3842ZM327.045 81.4483L333.199 65.3898C333.702 63.9445 334.269 62.3173 334.9 60.4973C335.521 58.6774 336.163 56.7932 336.826 54.8233C337.49 52.8642 338.111 50.9693 338.699 49.16L339.373 47.0724L339.866 48.6997C340.433 50.5625 341.086 52.6072 341.803 54.7805L343.836 60.947C344.446 62.8097 344.938 64.1908 345.302 65.0579L351.541 81.459H327.056L327.045 81.4483Z" fill="#140E1C"/>
</svg>
